<svg xmlns="http://www.w3.org/2000/svg" xmlns:xlink="http://www.w3.org/1999/xlink" xml:space="preserve" width="960" height="960" viewBox="0 0 254 254"><defs><clipPath id="c"><path d="M0 0h1000v666.667H0Z"/></clipPath></defs><circle id="b" cx="-76.457" cy="193.113" r="104.038" style="fill:none;fill-opacity:1;stroke-width:5.7344" transform="rotate(30.705)"/><circle id="a" cx="176.411" cy="-109.625" r="104.038" style="fill:none;fill-opacity:1;stroke-width:5.7344" transform="rotate(174.162)"/><g transform="translate(-361.598 -95.876)"><circle cx="488.598" cy="222.876" r="127" style="display:inline;fill:#000f5d;fill-opacity:1;stroke-width:7"/><path d="M488.598 95.876a127 127 0 0 0-127 127 127 127 0 0 0 127 127 127 127 0 0 0 127-127 127 127 0 0 0-127-127zm0 27.958a99.043 99.043 0 0 1 99.043 99.042 99.043 99.043 0 0 1-99.043 99.043 99.043 99.043 0 0 1-99.042-99.043 99.043 99.043 0 0 1 99.042-99.042z" style="display:inline;fill:#ffb900;fill-opacity:1;stroke-width:7"/><circle cx="533.905" cy="-57.856" r="104.038" style="display:inline;fill:none;fill-opacity:1;stroke-width:5.7344" transform="rotate(30.705)"/><circle cx="-463.394" cy="-271.419" r="104.038" style="fill:none;fill-opacity:1;stroke-width:5.7344" transform="rotate(174.162)"/><text xml:space="preserve" x="488.598" y="156.975" style="font-style:normal;font-variant:normal;font-weight:400;font-stretch:normal;font-size:30.1581px;line-height:.7;font-family:Haettenschweiler;-inkscape-font-specification:Haettenschweiler;text-align:center;letter-spacing:0;word-spacing:0;text-anchor:middle;fill:#ffb900;fill-opacity:1;stroke-width:8.54877"><tspan x="488.598" y="156.975" style="font-style:normal;font-variant:normal;font-weight:400;font-stretch:normal;line-height:.7;font-family:Georgia;-inkscape-font-specification:Georgia;fill:#ffb900;fill-opacity:1;stroke-width:8.54877">0110011101101</tspan><tspan x="488.598" y="180.388" style="font-style:normal;font-variant:normal;font-weight:400;font-stretch:normal;line-height:.7;font-family:Georgia;-inkscape-font-specification:Georgia;fill:#ffb900;fill-opacity:1;stroke-width:8.54877">01011101100110</tspan><tspan x="488.598" y="203.801" style="font-style:normal;font-variant:normal;font-weight:400;font-stretch:normal;line-height:.7;font-family:Georgia;-inkscape-font-specification:Georgia;fill:#ffb900;fill-opacity:1;stroke-width:8.54877">0101001000000</tspan><tspan x="488.598" y="227.215" style="font-style:normal;font-variant:normal;font-weight:400;font-stretch:normal;line-height:.7;font-family:Georgia;-inkscape-font-specification:Georgia;fill:#ffb900;fill-opacity:1;stroke-width:8.54877">110110101101111 </tspan><tspan x="488.598" y="250.628" style="font-style:normal;font-variant:normal;font-weight:400;font-stretch:normal;line-height:.7;font-family:Georgia;-inkscape-font-specification:Georgia;fill:#ffb900;fill-opacity:1;stroke-width:8.54877">01101110011001</tspan><tspan x="488.598" y="274.041" style="font-style:normal;font-variant:normal;font-weight:400;font-stretch:normal;line-height:.7;font-family:Georgia;-inkscape-font-specification:Georgia;fill:#ffb900;fill-opacity:1;stroke-width:8.54877">01011110010010</tspan><tspan x="488.598" y="297.454" style="font-style:normal;font-variant:normal;font-weight:400;font-stretch:normal;line-height:.7;font-family:Georgia;-inkscape-font-specification:Georgia;fill:#ffb900;fill-opacity:1;stroke-width:8.54877">000001110000</tspan><tspan x="492.236" y="320.868" style="font-style:normal;font-variant:normal;font-weight:400;font-stretch:normal;line-height:.7;font-family:Georgia;-inkscape-font-specification:Georgia;fill:#ffb900;fill-opacity:1;stroke-width:8.54877">110110000 </tspan></text><path d="m196.324 24.275-5.91.307c-.58.03-19.782.22-40.58.309l-38.564.166-2.352 1.244c-3.176 1.68-4.893 2.525-6.8 3.353-2.287.993-4.446 1.631-6.294 1.916-1.847.285-3.372.199-4.37-.09a88.368 88.368 0 0 0-1.794-.49c-.419-.616-1.147-1.387-2.224-1.664l-.026-.013-.062-.038a4.9 4.9 0 0 1-.077-.046l-.09-.06-.103-.067a5.29 5.29 0 0 1-.111-.079l-5.04-3.658-.907 5.946c-.205 1.343-.442 21.557-.48 24.76-.157 12.781-.452 28.867-.653 35.658-.204 6.863-.48 21.536-.612 32.529-.144 12.01-.215 17.968-.295 20.844-.006.24-.012.452-.02.65-.201.086-.42.175-.55.252-.92.543-2.342 1.911-2.615 3.535-.066.39-.067.945.107 1.537-.068.668-.057 1.354.084 1.916.098.388.275.731.467 1.06-.134.119-.394.314-.432.348-.277.254-.804.748-1.14 1.375-.005.01-.005.02-.01.03-1.192.942-1.575 2.28-1.014 3.681-.014.132-.046.25-.046.393 0 1.09.515 1.807.943 2.225.292.285.61.474.93.623.294.453.702.842 1.23 1.128v.038c-.016.504-.052 1.797.32 2.734.012.03.057.108.078.154.338 1.138 1.168 1.806 1.713 2.135-.414.472-.825 1.164-.843 2.11-.445 1.278-.172 2.47.656 3.49a5.57 5.57 0 0 0 .521 1.761 3.014 3.014 0 0 0 .227 1.801c-.016.042-.03.08-.049.125a9.43 9.43 0 0 1-.15.346c-.15.325-.129.28-.147.314-.042.011-.086.023-.138.035-.065.016-.138.032-.22.05-.86.186-1.557.639-2.017 1.023-.868.725-2.195 2.504-2.424 4.384a3.093 3.093 0 0 0-.466.881l-.01.014-.133.152-.19.213c-.807.9-1.087 1.903-1.017 2.883-.859.04-1.85.326-2.621 1.03-1.252 1.142-1.416 2.772-.758 4.072-.155.274-.354.58-.49.716l-.031.032a1.401 1.401 0 0 1-.041.037c-.048.04-.044.016.103-.045-1.297.542-2.197 1.541-2.764 2.705-.2.041-.398.097-.59.178-.182.077-.338.188-.5.293-.18-.028-.375-.075-.53-.075-1.586 0-3.01 1.194-3.635 2.686-.501.23-.964.552-1.292 1.043-.675 1.013-.597 2.345-.597 2.662 0 .988.155 2.276 1 3.361-.003.004-.009.007-.012.012-1.025.377-2.1 1.196-2.387 2.711a5.62 5.62 0 0 0-.043.75c-.2.16-.402.32-.57.531-.876 1.106-1.018 2.922.193 4.149.021.135.034.271.065.402-.04.067-.074.142-.111.213-.6.21-1.219.558-1.66 1.29-.045.075-.047.148-.085.222-.811.625-1.258 1.622-1.27 2.496-.01.91.368 1.708.669 2.267-.35.564-.518 1.17-.518 1.694 0 2.465 2.114 3.928 4.22 3.707.277.143.612.253.985.316l.047.033c.032.024.06.046.082.065.026.02.044.037.051.043.062.08 1.094 1.478 2.707 1.478 1.42 0 2.377-1.09 2.39-1.103.24-.216.555-.506.891-.819.554-.515 1.706-1.445 1.957-2.91.035-.199.033-.382.034-.566.434.103.899.168 1.443.164.572-.004 1.585-.119 2.5-.524.218 1.063.808 2.055 1.973 2.678 3.084 1.65 6.839-.576 7.488-3.724.232.049.457.085.65.085 1.427 0 2.92-1.07 3.315-1.35.386-.271.387-.212.361-.212-.026 0 .148-.011.701.314a74.362 74.362 0 0 0 2.403 1.342c.257.136 1.465.922 2.076 1.399 1.005.783 2.474 1.627 3.761 1.935l.372.09v.002a6.273 6.273 0 0 1 .14.4 3.438 3.438 0 0 0 1.219 1.745c1.658 1.27 3.763.762 4.879.253 2.45-1.116 3.362-4.697 3.512-6.412.1-.056.074-.055.2-.11a6.678 6.678 0 0 1 1.442-.419c1.941-.313 2.874-.783 4.293-2.164.04-.039.065-.056.104-.092.695 1.46 1.746 3.315 2.88 3.922a3.652 3.652 0 0 0 1.604.424c.068.346.177.694.379 1.021a3.38 3.38 0 0 0 1.781 1.42c1.74.617 3.582-.157 4.569-.933.955-.752 1.442-1.572 1.656-2.621 1.172-.003 2.266-.306 3.172-1.397 1.176-1.417 1.11-2.844.328-4.486.054.113-.036-.107-.074-.389-.01-.07-.001-.15-.008-.228 1.329-.167 2.305-.688 3.093-1.891.253-.386.44-.89.573-1.43a4.05 4.05 0 0 0 1.076-.756c.04.356.101.718.228 1.077.63 1.776 2.173 2.647 3.592 3.525 1.757 1.088 2.548 1.303 4.772 1.242a11.908 11.908 0 0 1 .625-.002c.414.757 1.07 1.796 2.154 2.317 1.276.613 3.052.426 4.086-1.047.168-.24.288-.486.383-.729l.095-.02c.702-.136 2.594-.605 3.596-1.536 1.877-1.746 2.067-5.647 2.068-7.67.001-1.081.095-1.356.06-1.276-.034.08-.01-.034.704-.656.808-.703 1.45-1.532 1.822-2.564 1.26.508 2.62.256 4.479-.838 1.838-1.083 4.126-3.604 4.13-6.254.001-.41.239-1.171.532-1.616a2.548 2.548 0 0 1 .158-.214l.05-.057c.754-.074 1.562-.24 2.089-.396 1.656-.49 2.626-1.28 3.469-2.786l.269-.312c3.001-1.531 3.642-4.272 2.037-7.266-.035-.065-.142-.323-.142-.957 0-.606-.084-1.485-.291-2.33 1.077-.03 2.513-.114 3.443-.22l.193-.022.145.158c1.546 1.682 2.556 2.25 4.312 2.25 1.904 0 3.073-.56 5.047-2.197.37-.306 1.437-.997 1.662-1.11a23.065 23.065 0 0 0 1.977-1.14l.015-.004.034-.006a1.43 1.43 0 0 1 .045-.006l.062-.008c.058-.005.13-.008.211-.008.989 0 2.37-.223 3.36-.637.226-.095.173-.123 1.074-.039.594.055 1.616.131 2.445-.082 1.08-.278 2.537-1.263 2.555-3.17a3.39 3.39 0 0 0-.207-1.158c.893-1.03 1.81-2.676.962-4.531a3.5 3.5 0 0 0-1.377-1.555c-.17-.105-.381-.183-.59-.262.177-.417.305-.858.305-1.314 0-1.21-.834-2.615-1.65-3.719.264-.227.54-.458.734-.674.348-.386.713-.884.922-1.822.397-1.776.24-9.94.137-21.332-.103-11.321-.229-27.53-.28-36.01-.05-8.488-.207-21.225-.347-28.287-.14-7.045-.366-19.139-.504-26.869-.13-7.26-.32-15.575-.408-17.475z" style="fill:#ffb900;fill-opacity:1;stroke-width:.940544" transform="translate(348.56 86.594)"/><path d="M410.29 312.642c-.516-.57-1.843-1.335-1.843-1.062 0 .093-.215-.025-.477-.262-.386-.35-.578-.378-1.011-.146-.594.318-1.25-.022-1.25-.648 0-.25.317-.325 1.173-.28 1.455.074 1.793-.553.572-1.06-.46-.19-1.026-.758-1.41-1.414-.652-1.11-.645-1.642.013-1.096.198.164.872.346 1.5.405 1.069.1 1.139.07 1.139-.497 0-.524-.147-.625-1.12-.77-1.288-.194-1.517-.577-.311-.522.716.032.801-.032.742-.565-.039-.351.162-.845.484-1.187.498-.53.52-.666.24-1.443-.223-.617-.236-.996-.048-1.348.374-.698.338-.77-.381-.77-1.04 0-.56-.606.606-.765 1.77-.24 2.983-1.495 2.273-2.351-.252-.303-.437-.281-1.287.152-.931.476-.987.479-.906.055.053-.282.347-.481.78-.531.465-.054.772-.28.925-.685.148-.387.433-.609.796-.618.63-.015 1.811-1.324 1.561-1.73-.087-.14-.258-.193-.38-.117-.203.125-.464-.064-1.797-1.305-.303-.282-.435-.785-.435-1.656 0-.972.066-1.184.298-.951.399.398.697.377.697-.049 0-.19.175-.413.39-.495.213-.082.312-.273.219-.424-.255-.413.407-1.471.92-1.471.367 0 .422.137.3.746-.207 1.039.21.938 1.033-.249.77-1.11 1.205-1.294.984-.417-.094.378 0 .7.273.926.365.303.477.274.887-.233.258-.319.469-.965.469-1.435 0-1.22.625-2.267 1.594-2.672 1.604-.67 3.236-4.02 2.233-4.582-.66-.37-.236-1.043.657-1.043.847 0 2.235-.622 2.235-1.002 0-.133.28-.242.622-.242.704 0 .798-.419.257-1.135-.453-.598-.474-1.038-.07-1.487.748-.835.933-1.107.933-1.376 0-.157.164-.223.365-.146.487.187.745-.27.392-.696-.638-.769.741-3.258 1.95-3.52 1.582-.343 1.927-.619 2.596-2.078.721-1.57.856-2.635.358-2.835-.248-.1-.248-.13 0-.146.466-.029.376-.73-.186-1.444-.274-.348-.498-.954-.498-1.346 0-.392-.227-.94-.503-1.217-.41-.409-.452-.6-.23-1.016.152-.283.212-.577.135-.654-.077-.078.045-.277.272-.443.394-.288.462-.515.673-2.236.102-.835-.342-1.474-1.412-2.027-.381-.197-.627-.465-.546-.596.08-.131.043-.239-.084-.239-.128 0-.208-.725-.18-1.612.055-1.685-.267-2.289-1.44-2.704-.318-.113-.405-.308-.294-.66.135-.425.046-.498-.605-.498-.42 0-.763-.112-.763-.25 0-.136.187-.248.417-.248.353 0 .335-.087-.125-.576-.698-.743-.682-.873.143-1.202.432-.172.56-.318.35-.396-.234-.086-.098-.34.45-.841.433-.395.889-.718 1.014-.718.393 0 .986-1.43.986-2.38 0-.791-.067-.896-.499-.783-.375.098-.536-.019-.65-.472-.083-.332-.087-.848-.01-1.146.078-.299.041-.665-.082-.814-.338-.406.907-1.87 1.59-1.87.31 0 .647-.085.75-.187a.772.772 0 0 1 .476-.187c.374 0 .367.256.655-23.765.132-11.018.407-25.632.61-32.476.203-6.843.497-22.913.654-35.71.156-12.797.358-23.752.448-24.345l.163-1.077 1.056.766c.58.422 1.218.766 1.417.766.2 0 .508.304.687.675a1.66 1.66 0 0 0 1.071.858c.41.1 1.418.377 2.24.614 3.143.907 7.721.201 12.691-1.957 1.99-.864 3.804-1.758 7.008-3.454l1.702-.901 37.826-.161c20.804-.09 39.129-.23 40.722-.312l2.897-.15.154 3.327c.084 1.83.266 9.655.404 17.388.138 7.733.365 19.827.505 26.876.14 7.049.296 19.759.347 28.245.05 8.486.176 24.695.279 36.02.182 20.057.175 20.605-.288 21.12-.262.29-.952.855-1.533 1.257-.582.4-1.058.872-1.058 1.047 0 .175.296.59.657.921.805.74 2.08 2.686 2.08 3.175 0 .198-.456.855-1.015 1.46-.945 1.026-.99 1.14-.655 1.646.27.408.701.581 1.727.694.751.082 1.494.23 1.65.326.531.328.287 1.127-.587 1.922-.962.875-1.062 1.324-.483 2.15.59.843.257 1.046-1.454.887-1.13-.106-1.806-.036-2.51.259-.53.222-1.52.403-2.201.403-.808 0-1.468.162-1.899.465-.363.256-1.164.716-1.78 1.022-.616.307-1.624.975-2.24 1.486-1.507 1.25-2.041 1.506-3.133 1.506-.796 0-1.09-.18-2.103-1.28l-1.178-1.28-1.708.194c-.939.107-2.529.207-3.533.223-1.604.025-1.884.1-2.305.62-.701.864-.814 1.62-.369 2.48.226.437.394 1.375.394 2.207 0 .972.163 1.753.497 2.376.85 1.584.64 2.463-.755 3.175-.577.294-1.168.884-1.525 1.52-.47.842-.796 1.104-1.701 1.372-.616.182-1.424.332-1.796.334-1.507.01-3.18 2.543-3.183 4.823-.002 1.124-1.242 2.841-2.652 3.672-1.45.854-1.75.875-2.49.179-.521-.49-.665-.511-1.568-.24-1.08.323-1.348.669-1.6 2.065-.112.622-.461 1.172-1.09 1.72-1.59 1.383-1.793 1.859-1.795 4.195-.002 2.659-.448 4.858-1.11 5.474-.28.26-1.237.615-2.127.789-1.896.37-2.24.578-2.24 1.357 0 1.195-.704.856-1.494-.72-.51-1.016-1.147-1.264-3.118-1.21-1.597.044-1.87-.026-3.11-.794-2.48-1.535-2.572-1.678-2.396-3.757.142-1.681.11-1.857-.452-2.463-.332-.359-.711-.652-.841-.652s-.71-.395-1.287-.877c-.842-.704-1.119-.818-1.405-.581-.195.162-.322.585-.28.939.06.515.287.71 1.145.982 1.435.454 1.346 1.096-.18 1.3-.73.098-1.253.343-1.57.734-.402.496-.55.541-.956.29l-.964-.599c-.685-.425-1.614.382-1.241 1.078.137.257.406.466.597.466.557 0 .715.953.272 1.63-.335.51-.6.61-1.624.61-.983 0-1.3.11-1.612.553-.521.745-.507 3.162.026 4.28.354.74.364.927.071 1.28-.276.333-.605.382-1.688.255-1.709-.2-2.031.054-2.031 1.608 0 .995-.11 1.282-.656 1.711-.675.532-1.698.686-1.94.294-.076-.123.029-.697.233-1.276.49-1.387.47-1.667-.14-1.993-.414-.222-.718-.152-1.615.374-.878.515-1.206.594-1.597.384-.46-.246-2.249-3.58-2.249-4.19 0-.153-.3-.435-.667-.627-.905-.475-2.06.005-3.578 1.48-.98.954-1.346 1.14-2.678 1.354-1.456.235-3.005.893-3.726 1.585-.177.17-.36.865-.406 1.544-.114 1.664-1.009 3.688-1.789 4.043-.922.42-1.833.35-1.988-.154-.333-1.074-.87-2.075-1.156-2.151a107.46 107.46 0 0 0-1.524-.373c-.74-.177-1.756-.714-2.613-1.383-.77-.6-1.904-1.359-2.52-1.685a69.49 69.49 0 0 1-2.283-1.276c-1.665-.98-2.887-.97-4.312.034-.624.44-1.338.8-1.587.8-.677 0-2.519-1.429-2.519-1.954 0-.252-.217-.654-.482-.894-.496-.45-1.011-.347-1.011.2 0 .172-.276.685-.612 1.141-.685.928-.561 1.473.527 2.329 1.66 1.305-.727 4.19-2.626 3.173-.626-.335-.7-1.395-.15-2.178.68-.972-.08-1.763-1.263-1.313-.35.133-1.056.242-1.568.242-.513 0-1.15.165-1.415.365-.266.201-.947.37-1.515.374-.892.007-1.137-.118-1.81-.926-1.18-1.413-1.577-1.804-1.835-1.804-.129 0-.669.435-1.2.966-1.07 1.07-1.217 1.832-.509 2.627.252.282.602.879.778 1.325.315.798.3.83-.879 1.929-.66.614-1.216 1.117-1.237 1.117-.02 0-.25-.236-.511-.524z" style="display:inline;fill:#000f5d;fill-opacity:1;stroke-width:.940544"/><text xml:space="preserve" style="font-size:24.6944px;font-family:Georgia;-inkscape-font-specification:Georgia;text-align:center;letter-spacing:0;word-spacing:0;text-anchor:middle;display:inline;fill:#000f5d;fill-opacity:1;stroke-width:7" transform="translate(652.944 95.876)"><textPath xlink:href="#a" startOffset="50%"><tspan style="fill:#000f5d;fill-opacity:1;stroke-width:7">Scouting Alliance</tspan></textPath></text><text xml:space="preserve" x="411.5" y="311.279" style="font-style:normal;font-variant:normal;font-weight:400;font-stretch:normal;font-size:3.30037px;line-height:.7;font-family:Georgia;-inkscape-font-specification:Georgia;text-align:center;letter-spacing:0;word-spacing:0;text-anchor:middle;display:inline;fill:#ffb900;fill-opacity:1;stroke-width:.935539"><tspan x="0" y="0" style="fill:#ffb900;fill-opacity:1;stroke-width:.935539">(:</tspan></text><text xml:space="preserve" style="font-size:24.6944px;font-family:Georgia;-inkscape-font-specification:Georgia;text-align:center;letter-spacing:0;word-spacing:0;text-anchor:middle;display:inline;fill:#000f5d;fill-opacity:1;stroke-width:7" transform="translate(652.944 95.876)"><textPath xlink:href="#b" startOffset="50%"><tspan style="font-size:24.6944px;stroke-width:7">Indiana</tspan></textPath></text><path fill="#ffb900" d="M466.95 164.578c-.026-.03-.05-.067-.076-.103-11.088-13.669.209-21.892.458-33.218 8.837 14.722-2.672 19.23 10.241 33.332z" style="stroke-width:.668291"/><path fill="#ffb900" d="M480.336 164.587c-4.267-6.003-7.26-15.584-5.98-21.844 1.27-6.256 5.605-12.417 5.005-17.153.748 1.801 3.412 5.905 4.212 10.287 3.897-10.072 10.704-14.324 21.277-14.844-19.016 14.45 5.807 25.555-10.606 43.57z" style="stroke-width:.668291"/><path fill="#ffb900" d="M497.767 164.612c7.74-9.772 5.694-17.194 4.994-23.125-.605-5.128-.346-8.351 8-12.338-.65 1.478-1.525 2.425-2.047 3.702-.619 1.516-1.498 3.25-.298 6.888 1.272 2.825 1.31 6.788.275 8.784-.991.273 4.427-6.7 6.502-7.192-2.303 4.761-1.353 10.212-5.01 16.245-1.345 2.222-3.658 4.766-6.498 7.035m-8.615 39.399c.674-17.084 4.329-22.408 11.259-29.553-13.447-.032-28.475.007-40.703-.043 6.9 7.156 10.592 12.526 11.23 29.608 6.127.003 12.129-.027 18.214-.013zm-9.133 41.622 5.32 16.688 2.938-49.552c-5.478-.019-10.957.016-16.436.008l2.82 49.533z" style="stroke-width:.668291"/><path fill="#ffb900" stroke="null" d="M473.545 205.645h24.83v5.513h-24.83Z" opacity="undefined" style="stroke-width:.668291"/><path fill="#ffb900" fill-rule="evenodd" d="M339.154 226.723h71.692v6.756h-71.692zm14.704 145.331h16.151L375 356.706l4.991 15.348h16.151l-13.067 9.485 4.991 15.348L375 387.401l-13.066 9.486 4.991-15.348z" clip-path="url(#c)" transform="translate(235.35 15.616)scale(.66829)"/><path d="m485.965 278-4.443 3.106.452 9.704c.09.071.211.147.29.213l.132.108.115.092a8.539 8.539 0 0 0 .183.138l.068.049.053.04.04.027c.002 0 .004 0 .005.002.884.373 1.529 1.034 1.81 1.338 1.356 1.462 1.406 2.797 1.24 4.753l-.022.316c.25.17.57.37 1.005.64.79.489.281.377 1.451.345.41-.011.81-.003 1.197.022l.857-17.777z" style="fill:#ffb900;fill-opacity:1;stroke-width:.668291"/></g></svg>